<svg xmlns="http://www.w3.org/2000/svg" viewBox="0 0 106.7 40"><path fill="#fff" d="M3.6 23.4c.3 2 1.9 3.6 4.1 3.6s4.7-1.6 4.7-5v-1.7c-.7 1.3-2.4 2.4-4.8 2.4-4.4 0-7.6-3.4-7.6-8.1s3.1-8.1 7.6-8.1 4.2 1.1 4.9 2.4v-2h3.8v15c0 4.4-2.3 8.5-8.5 8.5S.4 27.7-.1 24.3zm9-8.7c0-2.8-1.8-4.7-4.2-4.7S4 11.8 4 14.7s1.7 4.7 4.3 4.7c2.5-.1 4.3-1.9 4.3-4.7m18.3-3.9c-.4-.1-.9-.1-1.3-.1-3.1 0-4.5 1.8-4.5 4.9v7.9h-3.9V6.9H25v2.7c.8-1.8 2.6-2.9 4.8-2.9h1.1zM38 0c1.3 0 2.2 1 2.2 2.2s-1 2.2-2.2 2.2-2.2-1-2.2-2.2C35.9 1 36.8 0 38 0m7.2 0c1.2 0 2.2 1 2.2 2.2s-1 2.2-2.2 2.2-2.2-1-2.2-2.2.9-2.2 2.2-2.2m28.2 23.5V6.9h3.8V9c1-1.7 3-2.6 4.9-2.6s4.1 1 5 2.9c1.3-2.2 3.2-2.9 5.4-2.9s5.8 1.9 5.8 6.3v10.7h-3.8v-10c0-1.9-1-3.4-3.2-3.4s-3.4 1.6-3.4 3.7v9.8H84V13.4c0-1.9-1-3.4-3.2-3.4s-3.4 1.6-3.4 3.7v9.8zm31.1-4.4c1.2 0 2.2 1 2.2 2.2s-1 2.2-2.2 2.2-2.2-1-2.2-2.2.9-2.2 2.2-2.2m-55.4-2.6v-5.8h-3.9v5.6c0 1.9-1.6 3.4-3.6 3.4S38 18.2 38 16.3v-5.6h-3.9v5.7-.2.2c0 3.8 3.4 6.9 7.5 6.9s7.4-2.9 7.5-6.8v-.2m19.7.2V6.9h-3.9v9.4c0 1.9-1.6 3.4-3.6 3.4s-3.6-1.5-3.6-3.4V6.9h-3.9v9.6-.2.2c0 3.8 3.4 6.9 7.5 6.9s7.3-3 7.5-6.9v-.2" class="cls-2"/><path d="M0 27.3h106.7V40H0z" style="stroke-width:0;fill:none"/><path fill="#fff" d="m26.6 37 3.85-7.85h1.05L27.65 37zm9.67-5.32h1.12v4.59c0 2.47-1.14 3.45-2.93 3.45-1 0-1.94-.52-2.44-1.47l.95-.47c.3.57.91.9 1.49.9 1.12 0 1.81-.64 1.81-2.33v-.14c-.36.58-1.13.91-1.83.91-1.45 0-2.64-1.12-2.64-2.8s1.2-2.79 2.63-2.79c.74 0 1.48.32 1.85.91v-.78Zm-.01 2.64c0-1.07-.88-1.73-1.7-1.73-.91 0-1.65.73-1.65 1.73s.74 1.77 1.65 1.77 1.7-.7 1.7-1.77m6.33-2.59-.19 1.06c-.3-.14-.57-.18-.79-.18-.97 0-1.42 1.04-1.42 2.47V37h-1.13v-5.32h1.13v1.2c.27-.93.81-1.33 1.49-1.33.36 0 .74.09.91.19Zm.3 3.13V33.8h3.98v1.06zm5.21-.53c0-1.69 1.28-2.79 2.79-2.79s2.8 1.11 2.8 2.79-1.29 2.8-2.8 2.8-2.79-1.12-2.79-2.8m4.48 0c0-1.03-.77-1.74-1.69-1.74s-1.68.72-1.68 1.74.76 1.75 1.68 1.75 1.69-.72 1.69-1.75m2.09 0c0-1.69 1.28-2.79 2.79-2.79s2.8 1.11 2.8 2.79-1.29 2.8-2.8 2.8-2.79-1.12-2.79-2.8m4.48 0c0-1.03-.78-1.74-1.69-1.74s-1.68.72-1.68 1.74.76 1.75 1.68 1.75 1.69-.72 1.69-1.75m2.36.53V33.8h3.98v1.06zm13.96-.9V37h-1.13v-2.99c0-.87-.46-1.4-1.17-1.4-.88-.01-1.33.62-1.33 1.73V37h-1.13v-2.99c0-.87-.46-1.4-1.12-1.4-.7 0-1.4.45-1.4 1.53V37h-1.12v-5.32h1.12v.83c.24-.59.95-.97 1.66-.97.77 0 1.42.41 1.74 1.12.46-.92 1.29-1.12 1.82-1.12 1.33 0 2.05.9 2.05 2.42ZM76.53 37l3.85-7.85h1.05L77.58 37z" class="cls-2" style="isolation:isolate"/></svg>