<svg width="1080" height="878" viewBox="0 0 1080 878" fill="none" xmlns="http://www.w3.org/2000/svg">
<rect x="134.5" y="151.5" width="312" height="328" rx="51.5" fill="url(#paint0_linear_317_1627)" stroke="#C7C5EF" stroke-width="9"/>
<rect x="224.5" y="276.488" width="133" height="37" rx="7.5" stroke="#AA9FFF" stroke-width="5"/>
<rect x="231" y="283" width="121" height="25" rx="3" fill="url(#paint1_linear_317_1627)"/>
<rect x="311" y="290" width="8" height="10" rx="2" fill="#AA9FFF"/>
<rect x="323" y="290" width="8" height="10" rx="2" fill="#AA9FFF"/>
<rect x="335" y="290" width="8" height="10" rx="2" fill="#AA9FFF"/>
<rect x="224.5" y="214.465" width="133" height="37" rx="7.5" stroke="#AA9FFF" stroke-width="5"/>
<rect x="231" y="220.977" width="121" height="25" rx="3" fill="url(#paint2_linear_317_1627)"/>
<rect x="311" y="227.977" width="8" height="10" rx="2" fill="#AA9FFF"/>
<rect x="323" y="227.977" width="8" height="10" rx="2" fill="#AA9FFF"/>
<rect x="335" y="227.977" width="8" height="10" rx="2" fill="#AA9FFF"/>
<rect x="224.5" y="334.141" width="133" height="37" rx="7.5" stroke="#AA9FFF" stroke-width="5"/>
<rect x="231" y="340.652" width="121" height="25" rx="3" fill="url(#paint3_linear_317_1627)"/>
<rect x="311" y="347.652" width="8" height="10" rx="2" fill="#AA9FFF"/>
<rect x="323" y="347.652" width="8" height="10" rx="2" fill="#AA9FFF"/>
<rect x="335" y="347.652" width="8" height="10" rx="2" fill="#AA9FFF"/>
<mask id="mask0_317_1627" style="mask-type:alpha" maskUnits="userSpaceOnUse" x="89" y="131" width="902" height="701">
<path d="M432 832H89V484H432V832ZM991 832H647V484H991V832ZM630 479H451V131H630V479Z" fill="#D9D9D9"/>
</mask>
<g mask="url(#mask0_317_1627)">
<path d="M647 715C694.291 701.428 788.495 632.827 786.982 467V373" stroke="#C7C5EF" stroke-width="10" stroke-linecap="round" stroke-dasharray="18 18"/>
<path d="M432 715C384.709 701.483 290.505 633.158 292.018 468V388" stroke="#C7C5EF" stroke-width="10" stroke-linecap="round" stroke-linejoin="round" stroke-dasharray="18 18"/>
<path d="M453 321H674" stroke="#C7C5EF" stroke-width="10" stroke-miterlimit="3.99393" stroke-linecap="round" stroke-linejoin="round" stroke-dasharray="18 18"/>
</g>
<rect x="634.638" y="151.5" width="311" height="328" rx="51.5" fill="url(#paint4_linear_317_1627)" stroke="#C7C5EF" stroke-width="9"/>
<rect x="723.925" y="275.258" width="133" height="37" rx="7.5" stroke="#AA9FFF" stroke-width="5"/>
<rect x="730.425" y="281.77" width="121" height="25" rx="3" fill="url(#paint5_linear_317_1627)"/>
<rect x="810.425" y="288.77" width="8" height="10" rx="2" fill="#AA9FFF"/>
<rect x="822.425" y="288.77" width="8" height="10" rx="2" fill="#AA9FFF"/>
<rect x="834.425" y="288.77" width="8" height="10" rx="2" fill="#AA9FFF"/>
<rect x="723.925" y="213.234" width="133" height="37" rx="7.5" stroke="#AA9FFF" stroke-width="5"/>
<rect x="730.425" y="219.746" width="121" height="25" rx="3" fill="url(#paint6_linear_317_1627)"/>
<rect x="810.425" y="226.746" width="8" height="10" rx="2" fill="#AA9FFF"/>
<rect x="822.425" y="226.746" width="8" height="10" rx="2" fill="#AA9FFF"/>
<rect x="834.425" y="226.746" width="8" height="10" rx="2" fill="#AA9FFF"/>
<rect x="723.925" y="332.914" width="133" height="37" rx="7.5" stroke="#AA9FFF" stroke-width="5"/>
<rect x="730.425" y="339.426" width="121" height="25" rx="3" fill="url(#paint7_linear_317_1627)"/>
<rect x="810.425" y="346.426" width="8" height="10" rx="2" fill="#AA9FFF"/>
<rect x="822.425" y="346.426" width="8" height="10" rx="2" fill="#AA9FFF"/>
<rect x="834.425" y="346.426" width="8" height="10" rx="2" fill="#AA9FFF"/>
<g clip-path="url(#clip0_317_1627)">
<path d="M570.82 663.348L578.06 663.472L597.729 643.803L598.682 635.469C583.081 621.57 562.483 613.105 539.975 613.105C499.224 613.105 464.83 640.833 454.649 678.391C456.796 676.894 461.387 678.017 461.387 678.017L500.69 671.555C500.69 671.555 502.71 668.211 503.734 668.377C508.33 663.328 513.929 659.294 520.175 656.535C526.42 653.776 533.172 652.353 540 652.355C551.653 652.38 562.388 656.497 570.82 663.309V663.348Z" fill="#EA4335"/>
<path d="M625.35 678.469C620.785 661.625 611.374 646.751 598.672 635.469L570.821 663.32C581.98 672.324 589.138 686.103 589.138 701.528V706.443C602.687 706.443 613.694 717.475 613.694 731C613.694 744.549 602.662 755.556 589.138 755.556H540.025L535.109 760.5V789.972L540.025 794.862H589.138C606.067 794.839 622.297 788.104 634.268 776.133C646.24 764.162 652.976 747.933 653 731.003C652.975 709.268 642.053 690.037 625.35 678.469Z" fill="#4285F4"/>
<path d="M490.862 794.894H539.947V755.556H490.862C487.375 755.556 483.928 754.807 480.756 753.359L473.669 755.531L454 775.2L452.276 781.839C463.361 790.295 476.917 794.872 490.859 794.866L490.862 794.894Z" fill="#34A853"/>
<path d="M490.863 667.168C473.933 667.191 457.703 673.927 445.732 685.897C433.761 697.868 427.024 714.097 427 731.027C427 751.766 436.933 770.206 452.305 781.888L480.781 753.412C476.471 751.468 472.813 748.323 470.245 744.352C467.678 740.382 466.31 735.755 466.306 731.027C466.306 717.478 477.338 706.471 490.863 706.471C500.821 706.471 509.381 712.474 513.251 720.949L541.727 692.473C530.049 677.101 511.605 667.168 490.866 667.168H490.863Z" fill="#FBBC05"/>
</g>
<path d="M219.33 439V435.719L234.244 414.327H219.244V409.909H240.778V413.19L225.878 434.582H240.864V439H219.33ZM270.59 424.455C270.59 427.589 270.003 430.274 268.829 432.509C267.664 434.734 266.073 436.438 264.056 437.622C262.049 438.806 259.771 439.398 257.224 439.398C254.676 439.398 252.394 438.806 250.377 437.622C248.37 436.429 246.779 434.72 245.604 432.494C244.44 430.259 243.857 427.58 243.857 424.455C243.857 421.32 244.44 418.64 245.604 416.415C246.779 414.18 248.37 412.471 250.377 411.287C252.394 410.103 254.676 409.511 257.224 409.511C259.771 409.511 262.049 410.103 264.056 411.287C266.073 412.471 267.664 414.18 268.829 416.415C270.003 418.64 270.59 421.32 270.59 424.455ZM265.292 424.455C265.292 422.248 264.946 420.387 264.255 418.872C263.573 417.348 262.626 416.197 261.414 415.42C260.202 414.634 258.805 414.241 257.224 414.241C255.642 414.241 254.246 414.634 253.033 415.42C251.821 416.197 250.87 417.348 250.178 418.872C249.496 420.387 249.156 422.248 249.156 424.455C249.156 426.661 249.496 428.527 250.178 430.051C250.87 431.566 251.821 432.717 253.033 433.503C254.246 434.279 255.642 434.668 257.224 434.668C258.805 434.668 260.202 434.279 261.414 433.503C262.626 432.717 263.573 431.566 264.255 430.051C264.946 428.527 265.292 426.661 265.292 424.455ZM299.479 409.909V439H294.791L281.084 419.185H280.842V439H275.572V409.909H280.288L293.982 429.739H294.237V409.909H299.479ZM305.221 439V409.909H324.141V414.327H310.491V422.224H323.161V426.642H310.491V434.582H324.255V439H305.221ZM343.175 439H337.55L347.792 409.909H354.298L364.553 439H358.928L351.158 415.875H350.931L343.175 439ZM343.36 427.594H358.701V431.827H343.36V427.594Z" fill="white"/>
<path d="M719.33 439V435.719L734.244 414.327H719.244V409.909H740.778V413.19L725.878 434.582H740.864V439H719.33ZM770.59 424.455C770.59 427.589 770.003 430.274 768.829 432.509C767.664 434.734 766.073 436.438 764.056 437.622C762.049 438.806 759.771 439.398 757.224 439.398C754.676 439.398 752.394 438.806 750.377 437.622C748.37 436.429 746.779 434.72 745.604 432.494C744.44 430.259 743.857 427.58 743.857 424.455C743.857 421.32 744.44 418.64 745.604 416.415C746.779 414.18 748.37 412.471 750.377 411.287C752.394 410.103 754.676 409.511 757.224 409.511C759.771 409.511 762.049 410.103 764.056 411.287C766.073 412.471 767.664 414.18 768.829 416.415C770.003 418.64 770.59 421.32 770.59 424.455ZM765.292 424.455C765.292 422.248 764.946 420.387 764.255 418.872C763.573 417.348 762.626 416.197 761.414 415.42C760.202 414.634 758.805 414.241 757.224 414.241C755.642 414.241 754.246 414.634 753.033 415.42C751.821 416.197 750.87 417.348 750.178 418.872C749.496 420.387 749.156 422.248 749.156 424.455C749.156 426.661 749.496 428.527 750.178 430.051C750.87 431.566 751.821 432.717 753.033 433.503C754.246 434.279 755.642 434.668 757.224 434.668C758.805 434.668 760.202 434.279 761.414 433.503C762.626 432.717 763.573 431.566 764.255 430.051C764.946 428.527 765.292 426.661 765.292 424.455ZM799.479 409.909V439H794.791L781.084 419.185H780.842V439H775.572V409.909H780.288L793.982 429.739H794.237V409.909H799.479ZM805.221 439V409.909H824.141V414.327H810.491V422.224H823.161V426.642H810.491V434.582H824.255V439H805.221ZM839.44 439V409.909H850.576C852.678 409.909 854.425 410.241 855.817 410.903C857.219 411.557 858.265 412.452 858.957 413.588C859.657 414.724 860.008 416.012 860.008 417.452C860.008 418.635 859.781 419.649 859.326 420.491C858.871 421.325 858.261 422.002 857.494 422.523C856.727 423.044 855.87 423.418 854.923 423.645V423.929C855.955 423.986 856.944 424.303 857.891 424.881C858.848 425.449 859.629 426.254 860.235 427.295C860.841 428.337 861.144 429.597 861.144 431.074C861.144 432.58 860.78 433.934 860.05 435.136C859.321 436.33 858.223 437.272 856.755 437.963C855.287 438.654 853.441 439 851.215 439H839.44ZM844.71 434.597H850.377C852.29 434.597 853.668 434.232 854.511 433.503C855.363 432.764 855.789 431.817 855.789 430.662C855.789 429.8 855.576 429.024 855.15 428.332C854.724 427.632 854.118 427.082 853.332 426.685C852.546 426.277 851.608 426.074 850.519 426.074H844.71V434.597ZM844.71 422.281H849.923C850.832 422.281 851.651 422.116 852.38 421.784C853.109 421.443 853.682 420.965 854.099 420.349C854.525 419.724 854.738 418.986 854.738 418.134C854.738 417.007 854.34 416.079 853.545 415.349C852.759 414.62 851.589 414.256 850.036 414.256H844.71V422.281Z" fill="white"/>
<defs>
<linearGradient id="paint0_linear_317_1627" x1="290.5" y1="147" x2="290.5" y2="484" gradientUnits="userSpaceOnUse">
<stop stop-color="#BECDFF" stop-opacity="0.14"/>
<stop offset="1" stop-color="#ABA5FF"/>
</linearGradient>
<linearGradient id="paint1_linear_317_1627" x1="231" y1="295.5" x2="352" y2="295.5" gradientUnits="userSpaceOnUse">
<stop stop-color="#B0A5FF"/>
<stop offset="1" stop-color="#DBE1FF" stop-opacity="0"/>
</linearGradient>
<linearGradient id="paint2_linear_317_1627" x1="231" y1="233.477" x2="352" y2="233.477" gradientUnits="userSpaceOnUse">
<stop stop-color="#B0A5FF"/>
<stop offset="1" stop-color="#DBE1FF" stop-opacity="0"/>
</linearGradient>
<linearGradient id="paint3_linear_317_1627" x1="231" y1="353.152" x2="352" y2="353.152" gradientUnits="userSpaceOnUse">
<stop stop-color="#B0A5FF"/>
<stop offset="1" stop-color="#DBE1FF" stop-opacity="0"/>
</linearGradient>
<linearGradient id="paint4_linear_317_1627" x1="790.138" y1="147" x2="790.138" y2="484" gradientUnits="userSpaceOnUse">
<stop stop-color="#BECDFF" stop-opacity="0.14"/>
<stop offset="1" stop-color="#ABA5FF"/>
</linearGradient>
<linearGradient id="paint5_linear_317_1627" x1="730.425" y1="294.27" x2="851.425" y2="294.27" gradientUnits="userSpaceOnUse">
<stop stop-color="#B0A5FF"/>
<stop offset="1" stop-color="#DBE1FF" stop-opacity="0"/>
</linearGradient>
<linearGradient id="paint6_linear_317_1627" x1="730.425" y1="232.246" x2="851.425" y2="232.246" gradientUnits="userSpaceOnUse">
<stop stop-color="#B0A5FF"/>
<stop offset="1" stop-color="#DBE1FF" stop-opacity="0"/>
</linearGradient>
<linearGradient id="paint7_linear_317_1627" x1="730.425" y1="351.926" x2="851.425" y2="351.926" gradientUnits="userSpaceOnUse">
<stop stop-color="#B0A5FF"/>
<stop offset="1" stop-color="#DBE1FF" stop-opacity="0"/>
</linearGradient>
<clipPath id="clip0_317_1627">
<rect width="226" height="226" fill="white" transform="translate(427 591)"/>
</clipPath>
</defs>
</svg>
